<svg xmlns="http://www.w3.org/2000/svg" version="1.1" xmlns:xlink="http://www.w3.org/1999/xlink" xmlns:svgjs="http://svgjs.dev/svgjs" width="500" height="500"><svg xmlns="http://www.w3.org/2000/svg" xmlns:xlink="http://www.w3.org/1999/xlink" width="500" zoomAndPan="magnify" viewBox="0 0 375 374.999991" height="500" preserveAspectRatio="xMidYMid meet" version="1.0"><defs><g></g></defs><rect x="-37.5" width="450" fill="#ffffff" y="-37.499999" height="449.999989" fill-opacity="1"></rect><rect x="-37.5" width="450" fill="#ffffff" y="-37.499999" height="449.999989" fill-opacity="1"></rect><g fill="#304945" fill-opacity="1"><g transform="translate(152.906244, 225.107827)"><g><path d="M 58.078125 -66.21875 C 56.171875 -68.125 52.722656 -69.554688 47.734375 -70.515625 C 45.898438 -70.878906 43.515625 -71.0625 40.578125 -71.0625 C 37.648438 -71.0625 34.554688 -70.363281 31.296875 -68.96875 C 28.035156 -67.570312 25.15625 -65.410156 22.65625 -62.484375 C 17.300781 -56.023438 14.625 -46.925781 14.625 -35.1875 C 14.625 -23.457031 17.300781 -15.25 22.65625 -10.5625 C 26.320312 -7.257812 31.179688 -5.609375 37.234375 -5.609375 C 43.285156 -5.609375 49.097656 -6.378906 54.671875 -7.921875 L 55.21875 -34.09375 L 61.265625 -34.09375 L 61.265625 -4.40625 C 58.046875 -2.34375 52.21875 -0.875 43.78125 0 C 41.4375 0.289062 38.960938 0.4375 36.359375 0.4375 C 33.753906 0.4375 30.691406 0.015625 27.171875 -0.828125 C 23.648438 -1.671875 20.382812 -3.375 17.375 -5.9375 C 10.5625 -11.726562 7.15625 -21.367188 7.15625 -34.859375 C 7.15625 -48.359375 10.378906 -58.789062 16.828125 -66.15625 C 23.285156 -73.53125 31.609375 -77.21875 41.796875 -77.21875 L 45.3125 -77 C 49.9375 -76.5625 53.476562 -75.71875 55.9375 -74.46875 C 58.394531 -73.21875 60.0625 -72.117188 60.9375 -71.171875 Z M 58.078125 -66.21875 "></path></g></g></g><rect x="-37.5" width="450" fill="#dfd9b6" y="-37.499999" height="449.999989" fill-opacity="1"></rect><g fill="#ffffff" fill-opacity="1"><g transform="translate(96.539061, 252.749983)"><g><path d="M 152.046875 -55.171875 C 152.046875 -62.242188 150.71875 -67.382812 148.0625 -70.59375 C 145.414062 -73.8125 142.164062 -75.898438 138.3125 -76.859375 C 134.457031 -77.828125 130.441406 -78.3125 126.265625 -78.3125 L 110.84375 -78.3125 L 110.84375 -80.484375 L 174.6875 -80.484375 L 174.6875 -78.3125 C 173.082031 -78.3125 172 -77.101562 171.4375 -74.6875 C 170.875 -72.28125 170.507812 -69.429688 170.34375 -66.140625 C 170.1875 -62.847656 169.789062 -59.914062 169.15625 -57.34375 C 166.257812 -44.332031 160.914062 -33.488281 153.125 -24.8125 C 145.332031 -16.144531 136.09375 -9.640625 125.40625 -5.296875 C 114.726562 -0.960938 103.484375 1.082031 91.671875 0.84375 C 79.867188 0.601562 68.46875 -1.84375 57.46875 -6.5 C 46.46875 -11.164062 36.789062 -18.15625 28.4375 -27.46875 C 20.082031 -36.78125 14.054688 -48.425781 10.359375 -62.40625 C 7.304688 -73.8125 6.582031 -85.09375 8.1875 -96.25 C 9.800781 -107.414062 13.378906 -117.78125 18.921875 -127.34375 C 24.460938 -136.90625 31.648438 -145.175781 40.484375 -152.15625 C 49.316406 -159.144531 59.4375 -164.164062 70.84375 -167.21875 C 81.757812 -170.269531 92.597656 -171.070312 103.359375 -169.625 C 114.128906 -168.1875 124.210938 -164.9375 133.609375 -159.875 C 143.003906 -154.8125 151.15625 -148.1875 158.0625 -140 L 152.28125 -118.796875 L 150.109375 -118.796875 C 146.421875 -126.335938 141.84375 -133.359375 136.375 -139.859375 C 130.914062 -146.367188 124.8125 -151.953125 118.0625 -156.609375 C 111.320312 -161.273438 104.015625 -164.453125 96.140625 -166.140625 C 88.265625 -167.828125 79.992188 -167.546875 71.328125 -165.296875 C 61.046875 -162.566406 52.488281 -157.707031 45.65625 -150.71875 C 38.832031 -143.726562 33.648438 -135.535156 30.109375 -126.140625 C 26.578125 -116.742188 24.609375 -106.90625 24.203125 -96.625 C 23.804688 -86.34375 24.816406 -76.460938 27.234375 -66.984375 C 30.441406 -55.253906 35.175781 -45.171875 41.4375 -36.734375 C 47.707031 -28.304688 54.9375 -21.5625 63.125 -16.5 C 71.320312 -11.445312 79.914062 -8.078125 88.90625 -6.390625 C 97.90625 -4.703125 106.742188 -4.660156 115.421875 -6.265625 C 123.609375 -8.035156 130.148438 -10.6875 135.046875 -14.21875 C 139.953125 -17.75 143.609375 -21.84375 146.015625 -26.5 C 148.421875 -31.164062 150.023438 -35.988281 150.828125 -40.96875 C 151.640625 -45.945312 152.046875 -50.679688 152.046875 -55.171875 Z M 152.046875 -55.171875 "></path></g></g></g></svg><style>@media (prefers-color-scheme: light) { :root { filter: none; } }
@media (prefers-color-scheme: dark) { :root { filter: none; } }
</style></svg>